<svg width="355" height="182" viewBox="0 0 355 182" fill="none" xmlns="http://www.w3.org/2000/svg">
<mask id="path-1-inside-1_268_16" fill="white">
<path fill-rule="evenodd" clip-rule="evenodd" d="M38.5 6.5L0 0V182H83H149H206H273H355V0L316.5 6.5L206 79V81H149V79L38.5 6.5Z"/>
</mask>
<path fill-rule="evenodd" clip-rule="evenodd" d="M38.5 6.5L0 0V182H83H149H206H273H355V0L316.5 6.5L206 79V81H149V79L38.5 6.5Z" fill="#7F1833"/>
<path d="M0 0L0.166475 -0.986046L-1 -1.18298V0H0ZM38.5 6.5L39.0486 5.6639L38.8732 5.54886L38.6665 5.51395L38.5 6.5ZM0 182H-1V183H0V182ZM355 182V183H356V182H355ZM355 0H356V-1.18298L354.834 -0.986046L355 0ZM316.5 6.5L316.334 5.51395L316.127 5.54886L315.951 5.6639L316.5 6.5ZM206 79L205.451 78.1639L205 78.4601V79H206ZM206 81V82H207V81H206ZM149 81H148V82H149V81ZM149 79H150V78.4601L149.549 78.1639L149 79ZM-0.166475 0.986046L38.3335 7.48605L38.6665 5.51395L0.166475 -0.986046L-0.166475 0.986046ZM1 182V0H-1V182H1ZM83 181H0V183H83V181ZM149 181H83V183H149V181ZM206 181H149V183H206V181ZM273 181H206V183H273V181ZM273 183H355V181H273V183ZM356 182V0H354V182H356ZM354.834 -0.986046L316.334 5.51395L316.666 7.48605L355.166 0.986046L354.834 -0.986046ZM315.951 5.6639L205.451 78.1639L206.549 79.8361L317.049 7.3361L315.951 5.6639ZM205 79V81H207V79H205ZM149 82H206V80H149V82ZM148 79V81H150V79H148ZM37.9514 7.3361L148.451 79.8361L149.549 78.1639L39.0486 5.6639L37.9514 7.3361Z" fill="white" mask="url(#path-1-inside-1_268_16)"/>
</svg>
